<svg width="25" height="24" viewBox="0 0 25 24" fill="none" xmlns="http://www.w3.org/2000/svg">
<path fill-rule="evenodd" clip-rule="evenodd" d="M23.5831 10.0569L22.6744 9.31668V21.4998H24.1279C24.6095 21.4998 25 21.8974 25 22.3878C25 22.8784 24.6095 23.2759 24.1279 23.2759H0.872125C0.390474 23.2759 3.31515e-05 22.8784 3.31515e-05 22.3878C3.31515e-05 21.8974 0.390474 21.4998 0.872125 21.4998H2.32561V9.31668L1.41691 10.0569C1.04081 10.3634 0.492009 10.3012 0.191137 9.91829C-0.109746 9.53525 -0.0487691 8.97639 0.327335 8.67008L9.77605 0.972975C11.3686 -0.324325 13.6315 -0.324325 15.2239 0.972975L24.6726 8.67008C25.0488 8.97639 25.1097 9.53525 24.8089 9.91829C24.508 10.3012 23.9593 10.3634 23.5831 10.0569ZM12.5 4.33135C10.7339 4.33135 9.30234 5.78916 9.30234 7.58744C9.30234 9.38571 10.7339 10.8435 12.5 10.8435C14.266 10.8435 15.6976 9.38571 15.6976 7.58744C15.6976 5.78916 14.266 4.33135 12.5 4.33135ZM14.5301 12.1005C13.9966 12.0275 13.3306 12.0275 12.5574 12.0275H12.4426C11.6695 12.0275 11.0033 12.0275 10.47 12.1005C9.89829 12.1787 9.35031 12.3553 8.90584 12.8079C8.46137 13.2605 8.28804 13.8185 8.21118 14.4006C8.13947 14.9437 8.13951 15.622 8.13955 16.4093V21.4998H9.88373H15.1162H16.8604V16.4093V16.2629C16.8602 15.5377 16.856 14.9098 16.7888 14.4006C16.7119 13.8185 16.5387 13.2605 16.0942 12.8079C15.6497 12.3553 15.1017 12.1787 14.5301 12.1005Z" fill="white"/>
</svg>
