<svg width="27" height="27" viewBox="0 0 27 27" fill="none" xmlns="http://www.w3.org/2000/svg">
<path d="M8.35423 20.25H22.5C22.4961 21.2958 22.4757 22.0757 22.3724 22.6919C22.2495 23.4257 22.0246 23.8142 21.6798 24.091C21.3348 24.3677 20.8506 24.5482 19.9362 24.6468C18.9949 24.7484 17.7473 24.75 15.9586 24.75H10.9739C9.18517 24.75 7.93762 24.7484 6.99633 24.6468C6.08193 24.5482 5.59769 24.3677 5.2528 24.091C4.90791 23.8142 4.68305 23.4257 4.56011 22.6919C4.55087 22.6368 4.54231 22.5803 4.53434 22.5225C4.48925 22.1949 4.46671 22.031 4.60908 21.6447C4.75145 21.2585 4.81316 21.1978 4.93662 21.0765C5.3027 20.717 5.8048 20.4508 6.38236 20.3266C6.70896 20.2564 7.13515 20.25 8.35423 20.25Z" fill="#D0AF5C"/>
<path opacity="0.5" d="M5.31808 3.07499C5.66165 2.72852 6.14402 2.50263 7.05491 2.37913C7.99258 2.25199 9.23535 2.25 11.0172 2.25H15.9828C17.7646 2.25 19.0074 2.25199 19.9451 2.37913C20.856 2.50263 21.3383 2.72852 21.6819 3.07499C22.0255 3.42146 22.2495 3.90789 22.372 4.82648C22.498 5.77207 22.5 7.02533 22.5 8.82227V20.25H8.35423C7.13515 20.25 6.70896 20.2564 6.38236 20.3266C5.8048 20.4508 5.3027 20.717 4.93662 21.0765C4.81317 21.1978 4.75145 21.2584 4.60908 21.6447C4.52739 21.8663 4.5 22.0148 4.5 22.1628V8.82227C4.5 7.02533 4.50198 5.77207 4.62805 4.82648C4.75052 3.90789 4.97451 3.42146 5.31808 3.07499Z" fill="#D0AF5C"/>
<path d="M8.15625 7.875C8.15625 7.40901 8.53401 7.03125 9 7.03125H18C18.466 7.03125 18.8437 7.40901 18.8437 7.875C18.8437 8.34099 18.466 8.71875 18 8.71875H9C8.53401 8.71875 8.15625 8.34099 8.15625 7.875Z" fill="#D0AF5C"/>
<path d="M9 10.9688C8.53401 10.9688 8.15625 11.3465 8.15625 11.8125C8.15625 12.2785 8.53401 12.6562 9 12.6562H14.625C15.091 12.6562 15.4688 12.2785 15.4688 11.8125C15.4688 11.3465 15.091 10.9688 14.625 10.9688H9Z" fill="#D0AF5C"/>
</svg>
